<?xml version="1.0" standalone="no"?>
<!DOCTYPE svg PUBLIC "-//W3C//DTD SVG 20010904//EN"
 "http://www.w3.org/TR/2001/REC-SVG-20010904/DTD/svg10.dtd">
<svg version="1.0" xmlns="http://www.w3.org/2000/svg"
 width="1000.000000pt" height="1000.000000pt" viewBox="0 0 1000.000000 1000.000000"
 preserveAspectRatio="xMidYMid meet">
<metadata>
Created by potrace 1.14, written by Peter Selinger 2001-2017
</metadata>
<g transform="translate(0.000000,1000.000000) scale(0.100000,-0.100000)"
fill="#000000" stroke="none">
<path d="M4680 9989 c-1966 -126 -3671 -1393 -4364 -3243 -702 -1871 -210
-3993 1244 -5371 1082 -1026 2551 -1515 4025 -1339 1764 210 3276 1328 3993
2955 672 1523 532 3298 -370 4707 -978 1528 -2717 2407 -4528 2291z m565 -584
c392 -15 857 -108 1250 -250 1691 -613 2847 -2189 2913 -3970 29 -775 -121
-1481 -460 -2159 -619 -1241 -1800 -2126 -3163 -2370 -577 -104 -1199 -89
-1770 40 -1643 373 -2944 1674 -3319 3319 -164 720 -143 1484 59 2200 216 761
669 1497 1247 2025 644 588 1397 961 2238 1109 243 43 624 73 805 64 33 -1
123 -5 200 -8z"/>
<path d="M4762 9119 c-1374 -74 -2626 -843 -3329 -2044 -744 -1271 -744 -2879
0 -4150 896 -1531 2642 -2316 4382 -1969 1154 229 2152 944 2752 1969 744
1271 744 2879 0 4150 -600 1026 -1598 1740 -2752 1969 -216 43 -373 63 -600
76 -199 11 -244 11 -453 -1z m2548 -4119 l0 -2180 -715 0 -715 0 0 1735 0
1736 -112 -3 -112 -3 -677 -925 -677 -925 684 -3 684 -2 0 -320 0 -320 -843 0
-843 0 -380 -482 -380 -483 -582 -3 c-320 -1 -582 0 -582 3 0 3 727 984 1616
2180 l1616 2175 1009 0 1009 0 0 -2180z"/>
</g>
</svg>
